<svg width="30" height="30" viewBox="0 0 30 30" fill="none" xmlns="http://www.w3.org/2000/svg">
<path d="M9.6875 7.5C9.43886 7.5 9.2004 7.59877 9.02459 7.77459C8.84877 7.9504 8.75 8.18886 8.75 8.4375V14.0625C8.75 14.58 9.17 15 9.6875 15H16.5625C16.8111 15 17.0496 14.9012 17.2254 14.7254C17.4012 14.5496 17.5 14.3111 17.5 14.0625V8.4375C17.5 8.18886 17.4012 7.9504 17.2254 7.77459C17.0496 7.59877 16.8111 7.5 16.5625 7.5H9.6875ZM10.625 13.125V9.375H15.625V13.125H10.625ZM8.4375 3.75C7.52582 3.75 6.65148 4.11216 6.00682 4.75682C5.36216 5.40148 5 6.27582 5 7.1875V25.625H4.6875C4.43886 25.625 4.2004 25.7238 4.02459 25.8996C3.84877 26.0754 3.75 26.3139 3.75 26.5625C3.75 26.8111 3.84877 27.0496 4.02459 27.2254C4.2004 27.4012 4.43886 27.5 4.6875 27.5H21.5625C21.8111 27.5 22.0496 27.4012 22.2254 27.2254C22.4012 27.0496 22.5 26.8111 22.5 26.5625C22.5 26.3139 22.4012 26.0754 22.2254 25.8996C22.0496 25.7238 21.8111 25.625 21.5625 25.625H21.25V23.3713C21.7731 23.6402 22.3566 23.7701 22.9444 23.7486C23.5322 23.727 24.1046 23.5547 24.6067 23.2482C25.1087 22.9417 25.5235 22.5113 25.8113 21.9983C26.0991 21.4853 26.2501 20.907 26.25 20.3188V13.0213C26.25 12.2775 26.0088 11.5538 25.5625 10.9588L24.1875 9.125C24.0383 8.92609 23.8162 8.79459 23.5701 8.75942C23.3239 8.72426 23.0739 8.78832 22.875 8.9375C22.6761 9.08668 22.5446 9.30878 22.5094 9.55492C22.4743 9.80106 22.5383 10.0511 22.6875 10.25L24.0625 12.0838C24.265 12.3538 24.375 12.6838 24.375 13.0213V20.3188C24.375 20.5231 24.3347 20.7255 24.2565 20.9143C24.1783 21.1031 24.0637 21.2747 23.9192 21.4192C23.7747 21.5637 23.6031 21.6783 23.4143 21.7565C23.2255 21.8347 23.0231 21.875 22.8187 21.875C22.6144 21.875 22.412 21.8347 22.2232 21.7565C22.0344 21.6783 21.8628 21.5637 21.7183 21.4192C21.5738 21.2747 21.4592 21.1031 21.381 20.9143C21.3028 20.7255 21.2625 20.5231 21.2625 20.3188V18.125C21.2624 18.0743 21.2582 18.0238 21.25 17.9738V7.1875C21.25 6.73608 21.1611 6.28908 20.9883 5.87203C20.8156 5.45497 20.5624 5.07602 20.2432 4.75682C19.924 4.43762 19.545 4.18441 19.128 4.01166C18.7109 3.83891 18.2639 3.75 17.8125 3.75H8.4375ZM19.375 25.625H6.875V7.1875C6.875 6.325 7.575 5.625 8.4375 5.625H17.8125C18.675 5.625 19.375 6.325 19.375 7.1875V25.625Z" fill="white"/>
</svg>
